<?xml version="1.0" standalone="no"?>
<!DOCTYPE svg PUBLIC "-//W3C//DTD SVG 20010904//EN"
 "http://www.w3.org/TR/2001/REC-SVG-20010904/DTD/svg10.dtd">
<svg version="1.0" xmlns="http://www.w3.org/2000/svg"
 width="700.000000pt" height="700.000000pt" viewBox="0 0 700.000000 700.000000"
 preserveAspectRatio="xMidYMid meet">
<metadata>
Created by potrace 1.14, written by Peter Selinger 2001-2017
</metadata>
<g transform="translate(0.000000,700.000000) scale(0.100000,-0.100000)"
fill="#000000" stroke="none">
<path d="M3193 5839 c-62 -39 -67 -66 -60 -319 11 -390 54 -698 151 -1075 33
-126 33 -133 25 -250 -26 -386 1 -826 72 -1179 73 -361 156 -585 395 -1071
174 -354 240 -448 332 -476 79 -23 157 15 193 96 46 100 1 383 -162 1040 -103
411 -162 614 -385 1308 -149 465 -147 450 -114 639 22 129 46 202 90 271 52
82 99 86 176 15 92 -85 211 -273 335 -533 152 -318 222 -514 479 -1340 66
-214 133 -415 148 -445 35 -71 68 -94 132 -94 54 0 87 18 124 68 35 47 26 105
-67 436 -151 535 -222 840 -267 1136 -25 166 -37 427 -22 466 15 37 49 57 120
70 84 16 133 -4 204 -81 131 -142 348 -588 478 -981 61 -184 126 -418 240
-855 56 -214 108 -405 117 -422 46 -98 210 -97 257 1 24 51 21 79 -33 284 -28
103 -84 317 -126 477 -166 630 -300 998 -490 1348 -139 258 -226 373 -336 446
-150 100 -347 108 -520 20 -106 -53 -171 -136 -202 -258 l-14 -55 -38 70
c-138 250 -244 400 -342 479 -193 158 -385 149 -546 -25 l-65 -70 -11 93 c-20
164 -30 288 -37 487 -7 216 -15 246 -69 280 -43 27 -119 27 -162 -1z m511
-2754 c64 -214 180 -655 173 -661 -13 -13 -133 334 -176 509 -44 175 -90 456
-61 367 4 -14 33 -110 64 -215z"/>
<path d="M1695 5824 c-183 -30 -356 -132 -524 -310 -139 -146 -241 -321 -296
-509 -37 -122 -46 -315 -20 -431 35 -160 136 -329 263 -438 137 -118 276 -184
652 -309 532 -177 812 -319 1045 -531 133 -120 232 -277 271 -431 23 -92 23
-266 0 -355 -79 -305 -357 -520 -790 -612 -195 -41 -377 -28 -610 43 -157 48
-200 71 -283 151 -80 77 -223 259 -223 283 0 26 -61 85 -100 96 -54 16 -101 5
-137 -34 -60 -64 -68 -110 -29 -192 37 -79 170 -251 275 -355 109 -109 204
-164 371 -219 339 -110 589 -118 915 -31 606 161 948 569 922 1099 -19 374
-219 688 -602 945 -252 170 -494 279 -940 425 -359 119 -465 170 -575 280
-178 179 -197 428 -55 698 57 107 115 182 213 274 141 132 226 171 372 171
169 0 374 -52 551 -142 104 -52 158 -91 198 -141 91 -112 261 -51 261 94 0 97
-132 217 -353 322 -217 103 -409 153 -612 159 -71 3 -143 2 -160 0z"/>
</g>
</svg>
